<?xml version="1.0" encoding="UTF-8"?>
<svg width="182px" height="132px" viewBox="0 0 182 132" version="1.1" xmlns="http://www.w3.org/2000/svg" xmlns:xlink="http://www.w3.org/1999/xlink">
    <title>Cascader</title>
    <g id="组件骨架图更新_202311" stroke="none" stroke-width="1" fill="none" fill-rule="evenodd">
        <g id="🎉-5.0-新版---黑" transform="translate(-527.000000, -1692.000000)">
            <g id="Cascader" transform="translate(527.849057, 1692.849057)">
                <g id="编组-60">
                    <rect id="矩形" stroke="#167CDB" x="0" y="0" width="139" height="20" rx="3"></rect>
                    <g id="1.通用/2.Icon图标/Line/Down" transform="translate(128.641509, 9.773585) scale(-1, 1) rotate(-180.000000) translate(-128.641509, -9.773585) translate(124.113207, 5.245283)" fill-rule="nonzero">
                        <g id="up" opacity="0" fill="#000000">
                            <rect id="矩形" x="0" y="0" width="9.05660377" height="9.05660377"></rect>
                        </g>
                        <path d="M7.78313088,2.26415094 L7.11980541,2.26415094 C7.07469928,2.26415094 7.03224645,2.28626179 7.00571343,2.32252358 L4.49303655,5.78596698 L1.98035966,2.32252358 C1.95382664,2.28626179 1.91137381,2.26415094 1.86626768,2.26415094 L1.20294221,2.26415094 C1.145454,2.26415094 1.11184551,2.32959906 1.145454,2.37647406 L4.26396815,6.67570755 C4.3771757,6.83136792 4.60889739,6.83136792 4.72122051,6.67570755 L7.83973466,2.37647406 C7.87422758,2.32959906 7.84061909,2.26415094 7.78313088,2.26415094 Z" id="路径" fill-opacity="0.25" fill="#FFFFFF"></path>
                    </g>
                </g>
                <g id="path-2-link" transform="translate(0.716981, 22.094340)" fill="#1F1F1F">
                    <rect id="path-2" x="0" y="0" width="180" height="108.679245" rx="4"></rect>
                </g>
                <path d="M4.71698113,22.0943396 L60.7169811,22.0943396 L60.7169811,22.0943396 L60.7169811,40.2075471 L0.716981132,40.2075471 L0.716981132,26.0943396 C0.716981132,23.8852006 2.50784213,22.0943396 4.71698113,22.0943396 Z" id="Rectangle-3-Copy-19" fill-opacity="0.04" fill="#000000" fill-rule="nonzero"></path>
                <g id="1.通用/2.Icon图标/Line/Down" transform="translate(52.226415, 31.150943) scale(-1, 1) rotate(90.000000) translate(-52.226415, -31.150943) translate(48.264151, 27.188679)" fill-rule="nonzero">
                    <g id="up" opacity="0" fill="#000000">
                        <rect id="矩形" x="0" y="0" width="7.9245283" height="7.9245283"></rect>
                    </g>
                    <path d="M6.81023952,1.98113208 L6.22982974,1.98113208 C6.19036187,1.98113208 6.15321564,2.00047907 6.12999925,2.03220814 L3.93140698,5.06272111 L1.7328147,2.03220814 C1.70959831,2.00047907 1.67245208,1.98113208 1.63298422,1.98113208 L1.05257443,1.98113208 C1.00227225,1.98113208 0.972864819,2.03839917 1.00227225,2.0794148 L3.73097213,5.8412441 C3.83002873,5.97744693 4.03278522,5.97744693 4.13106794,5.8412441 L6.85976783,2.0794148 C6.88994914,2.03839917 6.86054171,1.98113208 6.81023952,1.98113208 Z" id="路径" fill-opacity="0.25" fill="#FFFFFF"></path>
                </g>
                <g id="1.通用/2.Icon图标/Line/Down" transform="translate(51.660377, 49.264151) scale(-1, 1) rotate(90.000000) translate(-51.660377, -49.264151) translate(47.698113, 45.301887)" fill-rule="nonzero">
                    <g id="up" opacity="0" fill="#000000">
                        <rect id="矩形" x="0" y="0" width="7.9245283" height="7.9245283"></rect>
                    </g>
                    <path d="M6.81023952,1.98113208 L6.22982974,1.98113208 C6.19036187,1.98113208 6.15321564,2.00047907 6.12999925,2.03220814 L3.93140698,5.06272111 L1.7328147,2.03220814 C1.70959831,2.00047907 1.67245208,1.98113208 1.63298422,1.98113208 L1.05257443,1.98113208 C1.00227225,1.98113208 0.972864819,2.03839917 1.00227225,2.0794148 L3.73097213,5.8412441 C3.83002873,5.97744693 4.03278522,5.97744693 4.13106794,5.8412441 L6.85976783,2.0794148 C6.88994914,2.03839917 6.86054171,1.98113208 6.81023952,1.98113208 Z" id="路径" fill-opacity="0.25" fill="#FFFFFF"></path>
                </g>
                <rect id="Rectangle-3-Copy-30" fill-opacity="0.04" fill="#000000" fill-rule="nonzero" x="60.7169811" y="22.0943396" width="60" height="18.1132075"></rect>
                <path d="M120.716981,22.0943396 L176.716981,22.0943396 C178.92612,22.0943396 180.716981,23.8852006 180.716981,26.0943396 L180.716981,40.2075471 L180.716981,40.2075471 L120.716981,40.2075471 L120.716981,22.0943396 Z" id="Rectangle-3-Copy-30备份" fill="#111D2C"></path>
                <polygon id="Rectangle-3-Copy-21" fill-opacity="0.09" fill="#FFFFFF" fill-rule="nonzero" points="60.1509434 22.0943396 60.7169811 22.0943396 60.7169811 130.773585 60.1509434 130.773585"></polygon>
                <polygon id="Rectangle-3-Copy-21备份" fill-opacity="0.09" fill="#FFFFFF" fill-rule="nonzero" points="120.150943 22.0943396 120.716981 22.0943396 120.716981 130.773585 120.150943 130.773585"></polygon>
                <g id="1.通用/2.Icon图标/Line/Down" transform="translate(112.226415, 31.150943) scale(-1, 1) rotate(90.000000) translate(-112.226415, -31.150943) translate(108.264151, 27.188679)" fill-rule="nonzero">
                    <g id="up" opacity="0" fill="#000000">
                        <rect id="矩形" x="0" y="0" width="7.9245283" height="7.9245283"></rect>
                    </g>
                    <path d="M6.81023952,1.98113208 L6.22982974,1.98113208 C6.19036187,1.98113208 6.15321564,2.00047907 6.12999925,2.03220814 L3.93140698,5.06272111 L1.7328147,2.03220814 C1.70959831,2.00047907 1.67245208,1.98113208 1.63298422,1.98113208 L1.05257443,1.98113208 C1.00227225,1.98113208 0.972864819,2.03839917 1.00227225,2.0794148 L3.73097213,5.8412441 C3.83002873,5.97744693 4.03278522,5.97744693 4.13106794,5.8412441 L6.85976783,2.0794148 C6.88994914,2.03839917 6.86054171,1.98113208 6.81023952,1.98113208 Z" id="路径" fill-opacity="0.25" fill="#FFFFFF"></path>
                </g>
                <g id="编组备份-66" transform="translate(7.150943, 6.150943)" fill="#FFFFFF" fill-opacity="0.88" fill-rule="nonzero">
                    <rect id="矩形备份-11备份-34" x="46.8" y="0" width="1" height="8"></rect>
                    <rect id="矩形备份-11备份-33" x="44.2" y="0" width="1" height="8"></rect>
                    <rect id="矩形备份-11备份-21" x="41.6" y="0" width="1" height="8"></rect>
                    <rect id="矩形备份-11备份-20" x="39" y="0" width="1" height="8"></rect>
                    <rect id="矩形备份-11备份-19" x="36.4" y="0" width="1" height="8"></rect>
                    <rect id="矩形备份-11备份-3" x="33.8" y="0" width="1" height="8"></rect>
                    <rect id="矩形备份-10备份" x="31.2" y="0" width="1" height="8"></rect>
                    <rect id="矩形备份-11" x="28.6" y="0" width="1" height="8"></rect>
                    <rect id="矩形备份-10" x="26" y="0" width="1" height="8"></rect>
                    <rect id="矩形备份-9" x="23.4" y="0" width="1" height="8"></rect>
                    <rect id="矩形备份-8" x="20.8" y="0" width="1" height="8"></rect>
                    <rect id="矩形备份-7" x="18.2" y="0" width="1" height="8"></rect>
                    <rect id="矩形备份-6" x="15.6" y="0" width="1" height="8"></rect>
                    <rect id="矩形备份-5" x="13" y="0" width="1" height="8"></rect>
                    <rect id="矩形备份-4" x="10.4" y="0" width="1" height="8"></rect>
                    <rect id="矩形备份-3" x="7.8" y="0" width="1" height="8"></rect>
                    <rect id="矩形备份-2" x="5.2" y="0" width="1" height="8"></rect>
                    <rect id="矩形备份" x="2.6" y="0" width="1" height="8"></rect>
                    <rect id="矩形" x="0" y="0" width="1" height="8"></rect>
                </g>
                <g id="编组备份-66" transform="translate(8.150943, 27.150943)" fill="#FFFFFF" fill-opacity="0.88" fill-rule="nonzero">
                    <rect id="矩形备份-10" x="26" y="0" width="1" height="8"></rect>
                    <rect id="矩形备份-9" x="23.4" y="0" width="1" height="8"></rect>
                    <rect id="矩形备份-8" x="20.8" y="0" width="1" height="8"></rect>
                    <rect id="矩形备份-7" x="18.2" y="0" width="1" height="8"></rect>
                    <rect id="矩形备份-6" x="15.6" y="0" width="1" height="8"></rect>
                    <rect id="矩形备份-5" x="13" y="0" width="1" height="8"></rect>
                    <rect id="矩形备份-4" x="10.4" y="0" width="1" height="8"></rect>
                    <rect id="矩形备份-3" x="7.8" y="0" width="1" height="8"></rect>
                    <rect id="矩形备份-2" x="5.2" y="0" width="1" height="8"></rect>
                    <rect id="矩形备份" x="2.6" y="0" width="1" height="8"></rect>
                    <rect id="矩形" x="0" y="0" width="1" height="8"></rect>
                </g>
                <g id="编组备份-71" transform="translate(8.150943, 44.150943)" fill="#FFFFFF" fill-opacity="0.88" fill-rule="nonzero">
                    <rect id="矩形备份-10" x="26" y="0" width="1" height="8"></rect>
                    <rect id="矩形备份-9" x="23.4" y="0" width="1" height="8"></rect>
                    <rect id="矩形备份-8" x="20.8" y="0" width="1" height="8"></rect>
                    <rect id="矩形备份-7" x="18.2" y="0" width="1" height="8"></rect>
                    <rect id="矩形备份-6" x="15.6" y="0" width="1" height="8"></rect>
                    <rect id="矩形备份-5" x="13" y="0" width="1" height="8"></rect>
                    <rect id="矩形备份-4" x="10.4" y="0" width="1" height="8"></rect>
                    <rect id="矩形备份-3" x="7.8" y="0" width="1" height="8"></rect>
                    <rect id="矩形备份-2" x="5.2" y="0" width="1" height="8"></rect>
                    <rect id="矩形备份" x="2.6" y="0" width="1" height="8"></rect>
                    <rect id="矩形" x="0" y="0" width="1" height="8"></rect>
                </g>
                <g id="编组备份-66" transform="translate(67.150943, 27.150943)" fill="#FFFFFF" fill-opacity="0.88" fill-rule="nonzero">
                    <rect id="矩形备份-10" x="26" y="0" width="1" height="8"></rect>
                    <rect id="矩形备份-9" x="23.4" y="0" width="1" height="8"></rect>
                    <rect id="矩形备份-8" x="20.8" y="0" width="1" height="8"></rect>
                    <rect id="矩形备份-7" x="18.2" y="0" width="1" height="8"></rect>
                    <rect id="矩形备份-6" x="15.6" y="0" width="1" height="8"></rect>
                    <rect id="矩形备份-5" x="13" y="0" width="1" height="8"></rect>
                    <rect id="矩形备份-4" x="10.4" y="0" width="1" height="8"></rect>
                    <rect id="矩形备份-3" x="7.8" y="0" width="1" height="8"></rect>
                    <rect id="矩形备份-2" x="5.2" y="0" width="1" height="8"></rect>
                    <rect id="矩形备份" x="2.6" y="0" width="1" height="8"></rect>
                    <rect id="矩形" x="0" y="0" width="1" height="8"></rect>
                </g>
                <g id="编组备份-68" transform="translate(127.150943, 27.150943)" fill="#FFFFFF" fill-opacity="0.88" fill-rule="nonzero">
                    <rect id="矩形备份-10" x="26" y="0" width="1" height="8"></rect>
                    <rect id="矩形备份-9" x="23.4" y="0" width="1" height="8"></rect>
                    <rect id="矩形备份-8" x="20.8" y="0" width="1" height="8"></rect>
                    <rect id="矩形备份-7" x="18.2" y="0" width="1" height="8"></rect>
                    <rect id="矩形备份-6" x="15.6" y="0" width="1" height="8"></rect>
                    <rect id="矩形备份-5" x="13" y="0" width="1" height="8"></rect>
                    <rect id="矩形备份-4" x="10.4" y="0" width="1" height="8"></rect>
                    <rect id="矩形备份-3" x="7.8" y="0" width="1" height="8"></rect>
                    <rect id="矩形备份-2" x="5.2" y="0" width="1" height="8"></rect>
                    <rect id="矩形备份" x="2.6" y="0" width="1" height="8"></rect>
                    <rect id="矩形" x="0" y="0" width="1" height="8"></rect>
                </g>
            </g>
        </g>
    </g>
</svg>