<?xml version="1.0" encoding="UTF-8"?>
<svg width="93px" height="77px" viewBox="0 0 93 77" version="1.1" xmlns="http://www.w3.org/2000/svg" xmlns:xlink="http://www.w3.org/1999/xlink">
    <title>编组 6</title>
    <g id="组件骨架图更新_202311" stroke="none" stroke-width="1" fill="none" fill-rule="evenodd">
        <g id="🎉-5.0-新版---黑" transform="translate(-206.000000, -2200.000000)">
            <g id="编组-6" transform="translate(207.000000, 2200.000000)">
                <g id="Icon/Radio-Selected">
                    <g id="save"></g>
                    <rect id="矩形" fill="#000000" fill-rule="nonzero" opacity="0" x="0" y="0" width="16" height="16"></rect>
                    <rect id="Rectangle-271" fill="#1677FF" x="0" y="0" width="16" height="16" rx="8"></rect>
                    <circle id="椭圆形" fill="#FFFFFF" cx="8" cy="8" r="3"></circle>
                </g>
                <circle id="Oval-1-Copy-3" stroke-opacity="0.2" stroke="#FFFFFF" fill-opacity="0.08" fill="#FFFFFF" cx="7.5" cy="69" r="7.5"></circle>
                <circle id="Oval-1" stroke-opacity="0.2" stroke="#FFFFFF" cx="7.5" cy="39" r="7"></circle>
                <g id="编组备份-66" transform="translate(25.000000, 1.000000)" fill="#FFFFFF" fill-opacity="0.88" fill-rule="nonzero">
                    <rect id="矩形备份-11备份-48" x="66" y="0" width="1" height="14"></rect>
                    <rect id="矩形备份-11备份-47" x="63" y="0" width="1" height="14"></rect>
                    <rect id="矩形备份-11备份-32" x="60" y="0" width="1" height="14"></rect>
                    <rect id="矩形备份-11备份-31" x="57" y="0" width="1" height="14"></rect>
                    <rect id="矩形备份-11备份-30" x="54" y="0" width="1" height="14"></rect>
                    <rect id="矩形备份-11备份-29" x="51" y="0" width="1" height="14"></rect>
                    <rect id="矩形备份-11备份-21" x="48" y="0" width="1" height="14"></rect>
                    <rect id="矩形备份-11备份-20" x="45" y="0" width="1" height="14"></rect>
                    <rect id="矩形备份-11备份-19" x="42" y="0" width="1" height="14"></rect>
                    <rect id="矩形备份-11备份-3" x="39" y="0" width="1" height="14"></rect>
                    <rect id="矩形备份-10备份" x="36" y="0" width="1" height="14"></rect>
                    <rect id="矩形备份-11" x="33" y="0" width="1" height="14"></rect>
                    <rect id="矩形备份-10" x="30" y="0" width="1" height="14"></rect>
                    <rect id="矩形备份-9" x="27" y="0" width="1" height="14"></rect>
                    <rect id="矩形备份-8" x="24" y="0" width="1" height="14"></rect>
                    <rect id="矩形备份-7" x="21" y="0" width="1" height="14"></rect>
                    <rect id="矩形备份-6" x="18" y="0" width="1" height="14"></rect>
                    <rect id="矩形备份-5" x="15" y="0" width="1" height="14"></rect>
                    <rect id="矩形备份-4" x="12" y="0" width="1" height="14"></rect>
                    <rect id="矩形备份-3" x="9" y="0" width="1" height="14"></rect>
                    <rect id="矩形备份-2" x="6" y="0" width="1" height="14"></rect>
                    <rect id="矩形备份" x="3" y="0" width="1" height="14"></rect>
                    <rect id="矩形" x="0" y="0" width="1" height="14"></rect>
                </g>
                <g id="编组备份-72" transform="translate(25.000000, 31.000000)" fill="#FFFFFF" fill-opacity="0.88" fill-rule="nonzero">
                    <rect id="矩形备份-11备份-48" x="66" y="0" width="1" height="14"></rect>
                    <rect id="矩形备份-11备份-47" x="63" y="0" width="1" height="14"></rect>
                    <rect id="矩形备份-11备份-32" x="60" y="0" width="1" height="14"></rect>
                    <rect id="矩形备份-11备份-31" x="57" y="0" width="1" height="14"></rect>
                    <rect id="矩形备份-11备份-30" x="54" y="0" width="1" height="14"></rect>
                    <rect id="矩形备份-11备份-29" x="51" y="0" width="1" height="14"></rect>
                    <rect id="矩形备份-11备份-21" x="48" y="0" width="1" height="14"></rect>
                    <rect id="矩形备份-11备份-20" x="45" y="0" width="1" height="14"></rect>
                    <rect id="矩形备份-11备份-19" x="42" y="0" width="1" height="14"></rect>
                    <rect id="矩形备份-11备份-3" x="39" y="0" width="1" height="14"></rect>
                    <rect id="矩形备份-10备份" x="36" y="0" width="1" height="14"></rect>
                    <rect id="矩形备份-11" x="33" y="0" width="1" height="14"></rect>
                    <rect id="矩形备份-10" x="30" y="0" width="1" height="14"></rect>
                    <rect id="矩形备份-9" x="27" y="0" width="1" height="14"></rect>
                    <rect id="矩形备份-8" x="24" y="0" width="1" height="14"></rect>
                    <rect id="矩形备份-7" x="21" y="0" width="1" height="14"></rect>
                    <rect id="矩形备份-6" x="18" y="0" width="1" height="14"></rect>
                    <rect id="矩形备份-5" x="15" y="0" width="1" height="14"></rect>
                    <rect id="矩形备份-4" x="12" y="0" width="1" height="14"></rect>
                    <rect id="矩形备份-3" x="9" y="0" width="1" height="14"></rect>
                    <rect id="矩形备份-2" x="6" y="0" width="1" height="14"></rect>
                    <rect id="矩形备份" x="3" y="0" width="1" height="14"></rect>
                    <rect id="矩形" x="0" y="0" width="1" height="14"></rect>
                </g>
                <g id="编组备份-73" transform="translate(25.000000, 61.000000)" fill="#FFFFFF" fill-opacity="0.25" fill-rule="nonzero">
                    <rect id="矩形备份-11备份-48" x="66" y="0" width="1" height="14"></rect>
                    <rect id="矩形备份-11备份-47" x="63" y="0" width="1" height="14"></rect>
                    <rect id="矩形备份-11备份-32" x="60" y="0" width="1" height="14"></rect>
                    <rect id="矩形备份-11备份-31" x="57" y="0" width="1" height="14"></rect>
                    <rect id="矩形备份-11备份-30" x="54" y="0" width="1" height="14"></rect>
                    <rect id="矩形备份-11备份-29" x="51" y="0" width="1" height="14"></rect>
                    <rect id="矩形备份-11备份-21" x="48" y="0" width="1" height="14"></rect>
                    <rect id="矩形备份-11备份-20" x="45" y="0" width="1" height="14"></rect>
                    <rect id="矩形备份-11备份-19" x="42" y="0" width="1" height="14"></rect>
                    <rect id="矩形备份-11备份-3" x="39" y="0" width="1" height="14"></rect>
                    <rect id="矩形备份-10备份" x="36" y="0" width="1" height="14"></rect>
                    <rect id="矩形备份-11" x="33" y="0" width="1" height="14"></rect>
                    <rect id="矩形备份-10" x="30" y="0" width="1" height="14"></rect>
                    <rect id="矩形备份-9" x="27" y="0" width="1" height="14"></rect>
                    <rect id="矩形备份-8" x="24" y="0" width="1" height="14"></rect>
                    <rect id="矩形备份-7" x="21" y="0" width="1" height="14"></rect>
                    <rect id="矩形备份-6" x="18" y="0" width="1" height="14"></rect>
                    <rect id="矩形备份-5" x="15" y="0" width="1" height="14"></rect>
                    <rect id="矩形备份-4" x="12" y="0" width="1" height="14"></rect>
                    <rect id="矩形备份-3" x="9" y="0" width="1" height="14"></rect>
                    <rect id="矩形备份-2" x="6" y="0" width="1" height="14"></rect>
                    <rect id="矩形备份" x="3" y="0" width="1" height="14"></rect>
                    <rect id="矩形" x="0" y="0" width="1" height="14"></rect>
                </g>
            </g>
        </g>
    </g>
</svg>