<?xml version="1.0" standalone="no"?><!DOCTYPE svg PUBLIC "-//W3C//DTD SVG 1.1//EN" "http://www.w3.org/Graphics/SVG/1.1/DTD/svg11.dtd"><svg t="1779890720242" class="icon" viewBox="0 0 1024 1024" version="1.1" xmlns="http://www.w3.org/2000/svg" p-id="2041" width="128" height="128" xmlns:xlink="http://www.w3.org/1999/xlink"><path d="M651.6 85l-137 137L372.9 84.7c-10-9.7-3.2-26.6 10.7-26.7l256.4-0.8c14.6 0 21.9 17.5 11.6 27.8z" fill="#E81C56" p-id="2042" data-spm-anchor-id="a313x.search_index.0.i7.7bcc3a81aXOpau" class="selected"></path><path d="M844.1 71.2L717.8 197.5v364.3c0 2.1-0.9 4.2-2.4 5.7L522.7 760.1c14.8 14 72.2 62.7 157.4 67.4l204.3-204.3c7.6-7.6 11.8-17.8 11.8-28.5V92.8c0.1-27.3-32.8-40.9-52.1-21.6z" fill="#41B883" p-id="2043" data-spm-anchor-id="a313x.search_index.0.i6.7bcc3a81aXOpau" class=""></path><path d="M522.7 760.1l-2.1 2.1-202.7-202.7V202.8c0-8.3-3.3-16.3-9.2-22.2L194.5 67.3c-20.7-20.5-55.9-5.9-55.9 23.3V638l334 334c17.4 17.4 45.6 17.4 63 0l144.5-144.5c-85.2-4.7-142.5-53.3-157.4-67.4z" fill="#1296DB" p-id="2044" data-spm-anchor-id="a313x.search_index.0.i5.7bcc3a81aXOpau" class=""></path></svg>